<mxfile host="app.diagrams.net" modified="2024-03-21T21:15:44.323Z" agent="Mozilla/5.0 (Macintosh; Intel Mac OS X 10_15_7) AppleWebKit/537.36 (KHTML, like Gecko) Chrome/120.0.0.0 YaBrowser/24.1.0.0 Safari/537.36" version="24.0.7" etag="vSfOgmSurGN7oARTF1QL" type="github">
  <diagram name="Страница — 1" id="HMpSIY7IaVfysbAmS0JF">
    <mxGraphModel>
      <root>
        <mxCell id="0" />
        <mxCell id="1" parent="0" />
      </root>
    </mxGraphModel>
  </diagram>
</mxfile>
